<?xml version="1.0" encoding="utf-8"?>
<!-- Generator: Adobe Illustrator 15.1.0, SVG Export Plug-In . SVG Version: 6.00 Build 0)  -->
<!DOCTYPE svg PUBLIC "-//W3C//DTD SVG 1.1//EN" "http://www.w3.org/Graphics/SVG/1.1/DTD/svg11.dtd">
<svg version="1.1" id="Capa_1" xmlns="http://www.w3.org/2000/svg" xmlns:xlink="http://www.w3.org/1999/xlink" x="0px" y="0px"
	 width="196.027px" height="60px" viewBox="0 0 196.027 60" enable-background="new 0 0 196.027 60" xml:space="preserve">
<path fill="#FFFFFF" d="M98.426,13.44H75.33c-5.102,0-9.238,4.135-9.238,9.238v12.976c0,5.104,4.136,9.239,9.238,9.239h23.096
	c5.103,0,9.238-4.136,9.238-9.239V22.678C107.664,17.575,103.528,13.44,98.426,13.44z M100.845,35.435
	c0,1.822-1.478,3.299-3.299,3.299H75.99c-1.822,0-3.299-1.477-3.299-3.299V22.898c0-1.822,1.477-3.299,3.299-3.299h21.555
	c1.822,0,3.299,1.478,3.299,3.299V35.435z"/>
<g>
	<path fill="#FFFFFF" d="M31.009,1.563c-15.488,0-28.044,12.555-28.044,28.044c0,15.488,12.556,28.044,28.044,28.044
		c15.489,0,28.044-12.557,28.044-28.044C59.054,14.117,46.498,1.563,31.009,1.563z M46.406,33.015H18.582v2.42
		c0,1.822,1.477,3.299,3.299,3.299h13.858h2.859h7.368c1.701,0,3.079,1.379,3.079,3.079c0,1.701-1.378,3.08-3.079,3.08h-7.368
		h-2.859H21.221c-5.102,0-9.238-4.136-9.238-9.239V22.678c0-5.103,4.137-9.238,9.238-9.238h19.796c5.103,0,9.238,4.135,9.238,9.238
		l0.014,7.065C50.269,31.567,48.229,33.015,46.406,33.015z"/>
	<path fill="#FFFFFF" d="M40.138,19.599H21.881c-1.822,0-3.299,1.478-3.299,3.299v3.519h24.854v-3.519
		C43.437,21.076,41.959,19.599,40.138,19.599z"/>
</g>
<path fill="#FFFFFF" d="M150.115,35.435c0-4.788-3.561-8.735-8.177-9.361c-0.324-0.061-0.631-0.097-0.896-0.097l-19.851-0.337
	c-1.515,0-2.743-1.228-2.743-2.742c0-1.515,1.228-2.743,2.743-2.743c0,0,0.634-0.117,1.003-0.117h24.084
	c1.731,0,3.176-1.843,3.176-3.574c0-1.731-1.403-3.134-3.134-3.134h-24.085c-0.368,0-0.716,0.074-1.044,0.191V13.44
	c-5.224,0-9.458,4.234-9.458,9.458c0,5.223,4.234,9.458,9.458,9.458l19.466,0.336c1.514,0,2.741,1.229,2.741,2.743
	c0,1.479-1.171,2.676-2.636,2.731c-0.01,0-0.02-0.003-0.029-0.003l-25.509-0.006c-1.731,0-3.238,1.43-3.238,3.162l0.021,0.439
	c0,1.731,1.403,3.135,3.134,3.135l25.509,0.007c0.047,0,0.089-0.013,0.135-0.014C145.949,44.818,150.115,40.616,150.115,35.435z"/>
<path fill="#FFFFFF" d="M194.327,35.435c0-4.788-3.562-8.735-8.178-9.361c-0.324-0.061-0.632-0.097-0.896-0.097l-19.851-0.337
	c-1.515,0-2.742-1.228-2.742-2.742c0-1.515,1.228-2.743,2.742-2.743c0,0,0.635-0.117,1.003-0.117h24.084
	c1.73,0,3.178-1.843,3.178-3.574c0-1.731-1.404-3.134-3.135-3.134h-24.085c-0.368,0-0.717,0.074-1.045,0.191V13.44
	c-5.223,0-9.458,4.234-9.458,9.458c0,5.223,4.235,9.458,9.458,9.458l19.466,0.336c1.515,0,2.743,1.229,2.743,2.743
	c0,1.479-1.172,2.676-2.639,2.731c-0.009,0-0.018-0.003-0.027-0.003l-25.509-0.006c-1.731,0-3.237,1.43-3.237,3.162l0.02,0.439
	c0,1.731,1.403,3.135,3.134,3.135l25.51,0.007c0.046,0,0.088-0.013,0.134-0.014C190.161,44.818,194.327,40.616,194.327,35.435z"/>
</svg>
