<svg width="66.027" height="60" xmlns="http://www.w3.org/2000/svg">

 <g>
  <title>background</title>
  <rect fill="none" id="canvas_background" height="62" width="68.027" y="-1" x="-1"/>
 </g>
 <g>
  <title>Layer 1</title>
  <g id="svg_2">
   <path id="svg_3" d="m33.009,1.563c-15.488,0 -28.044,12.555 -28.044,28.044c0,15.488 12.556,28.044 28.044,28.044c15.489,0 28.044,-12.557 28.044,-28.044c0.001,-15.49 -12.555,-28.044 -28.044,-28.044zm15.397,31.452l-27.824,0l0,2.42c0,1.822 1.477,3.299 3.299,3.299l13.858,0l2.859,0l7.368,0c1.701,0 3.079,1.379 3.079,3.079c0,1.701 -1.378,3.08 -3.079,3.08l-7.368,0l-2.859,0l-14.518,0c-5.102,0 -9.238,-4.136 -9.238,-9.239l0,-12.976c0,-5.103 4.137,-9.238 9.238,-9.238l19.796,0c5.103,0 9.238,4.135 9.238,9.238l0.014,7.065c0,1.824 -2.04,3.272 -3.863,3.272z" fill="#FFFFFF"/>
   <path id="svg_4" d="m42.138,19.599l-18.257,0c-1.822,0 -3.299,1.478 -3.299,3.299l0,3.519l24.854,0l0,-3.519c0.001,-1.822 -1.477,-3.299 -3.298,-3.299z" fill="#FFFFFF"/>
  </g>
 </g>
</svg>